<svg version="1.1" id="Layer_1" xmlns="http://www.w3.org/2000/svg" xmlns:xlink="http://www.w3.org/1999/xlink" x="0px" y="0px"
viewBox="0 0 148.1 42.5" style="enable-background:new 0 0 148.1 42.5;" xml:space="preserve">
<style type="text/css">
.st0{fill:#026937;}
</style>
<g>
<path class="st0" d="M51.5,32.1l0.3-1.2c0.3,0.1,0.6,0.3,1,0.5c0.4,0.2,0.8,0.4,1.2,0.6c0.5,0.2,1,0.3,1.6,0.5
c0.6,0.1,1.3,0.2,2,0.2c1.1,0,2.2-0.2,3.2-0.5c1-0.3,1.8-0.8,2.5-1.3c0.7-0.6,1.3-1.3,1.7-2.1c0.4-0.8,0.6-1.7,0.6-2.6
c0-1-0.2-1.9-0.5-2.6c-0.4-0.7-0.8-1.3-1.4-1.7c-0.6-0.5-1.2-0.8-1.9-1.1c-0.7-0.3-1.3-0.5-2-0.7l-2.6-0.7
c-1.3-0.4-2.2-0.8-2.9-1.4c-0.6-0.6-1-1.4-1-2.5c0-1.3,0.4-2.4,1.2-3.1c0.8-0.8,1.9-1.1,3.2-1.1c1.2,0,2.1,0.2,2.8,0.6
c0.7,0.4,1.3,0.9,1.8,1.5c0.5,0.6,0.8,1.2,1.1,1.9c0.2,0.7,0.5,1.3,0.6,1.9h1l-0.3-6.7h-1l-0.4,1c-0.3-0.1-0.6-0.3-0.9-0.5
c-0.3-0.2-0.7-0.3-1.2-0.5c-0.5-0.1-1-0.3-1.5-0.4c-0.6-0.1-1.2-0.2-1.9-0.2c-0.8,0-1.7,0.1-2.5,0.3c-0.9,0.2-1.6,0.6-2.4,1.1
c-0.7,0.5-1.3,1.2-1.7,2.1c-0.5,0.8-0.7,1.9-0.7,3.1c0,1.1,0.2,2,0.6,2.7c0.4,0.7,0.9,1.3,1.5,1.7c0.6,0.4,1.2,0.8,1.8,1
c0.6,0.2,1.2,0.4,1.6,0.5l2.2,0.6c0.9,0.3,1.7,0.5,2.3,0.8c0.6,0.3,1,0.6,1.3,1c0.3,0.4,0.5,0.7,0.6,1.1c0.1,0.4,0.2,0.9,0.2,1.3
c0,0.5-0.1,0.9-0.3,1.4c-0.2,0.5-0.5,0.9-0.9,1.3c-0.4,0.4-0.9,0.7-1.6,0.9c-0.6,0.2-1.4,0.4-2.3,0.4c-1.1,0-2-0.2-2.7-0.5
c-0.7-0.3-1.3-0.8-1.8-1.3c-0.5-0.6-0.9-1.2-1.1-1.9c-0.3-0.7-0.5-1.4-0.7-2.1h-1l0.2,6.6L51.5,32.1L51.5,32.1z M72.4,32.1v-1
L71.5,31c-0.4,0-0.7-0.1-0.9-0.3c-0.2-0.1-0.4-0.4-0.4-0.8c0-0.2,0-0.4,0.1-0.6c0.1-0.2,0.2-0.5,0.3-0.8l1.6-3.9h8.6l1.5,3.6
c0.2,0.6,0.4,1.1,0.4,1.5c0,0.8-0.5,1.2-1.6,1.2l-1,0.1v1h9.2v-1l-1-0.1c-0.6,0-1-0.2-1.2-0.5c-0.2-0.3-0.5-0.7-0.7-1.3l-8.2-19
h-1.6l-7.7,18.5c-0.3,0.6-0.6,1.2-0.9,1.6c-0.4,0.4-0.8,0.7-1.4,0.7l-0.8,0.1v1H72.4z M76.3,14.4l3.9,8.9h-7.5L76.3,14.4z
M99.1,32.1c3.4,0,6-0.5,7.8-1.5c1.8-1,2.7-2.6,2.7-4.7c0-0.7-0.1-1.3-0.4-1.9c-0.2-0.6-0.6-1-0.9-1.4c-0.4-0.4-0.8-0.8-1.3-1
c-0.5-0.3-0.9-0.5-1.4-0.7c-0.4-0.2-0.9-0.3-1.2-0.4c-0.4-0.1-0.7-0.1-0.9-0.1c0.3-0.1,0.6-0.2,1.1-0.4c0.5-0.2,1-0.5,1.5-0.9
c0.5-0.4,0.9-0.9,1.3-1.5c0.4-0.6,0.5-1.3,0.5-2.2c0-1.2-0.3-2.1-0.8-2.8c-0.5-0.7-1.2-1.2-2-1.5c-0.8-0.3-1.7-0.5-2.6-0.6
c-0.9-0.1-1.8-0.1-2.6-0.1h-8.9v1l1.3,0.1c0.6,0,0.9,0.2,1.2,0.4c0.2,0.2,0.3,0.6,0.3,1.3v16.2c0,0.7-0.1,1.1-0.3,1.3
c-0.2,0.2-0.6,0.3-1.2,0.4l-1.3,0.1v1L99.1,32.1L99.1,32.1z M97.1,21.5h2.5c0.8,0,1.6,0.1,2.4,0.2c0.8,0.1,1.5,0.4,2.1,0.7
c0.6,0.4,1.1,0.8,1.5,1.4c0.4,0.6,0.6,1.4,0.6,2.4c0,0.9-0.1,1.6-0.4,2.2c-0.3,0.6-0.7,1.1-1.2,1.4c-0.5,0.4-1.2,0.6-1.9,0.8
c-0.7,0.2-1.5,0.2-2.4,0.2c-0.7,0-1.2-0.1-1.6-0.2c-0.4-0.1-0.7-0.3-0.9-0.6c-0.2-0.3-0.3-0.6-0.4-1c-0.1-0.4-0.1-0.8-0.1-1.3
L97.1,21.5L97.1,21.5z M97.1,11.5h1.7c2.1,0,3.6,0.3,4.6,1c1,0.7,1.5,1.6,1.5,2.9c0,0.8-0.1,1.4-0.3,2c-0.2,0.5-0.5,1-0.9,1.3
c-0.4,0.3-0.8,0.6-1.2,0.8c-0.5,0.2-0.9,0.3-1.4,0.4c-0.4,0.1-0.8,0.1-1.4,0.2c-0.5,0.1-1.1,0.1-1.8,0.1h-0.8L97.1,11.5L97.1,11.5z
M121,32.1v-1l-1.5-0.1c-0.6,0-1-0.2-1.2-0.4c-0.2-0.2-0.3-0.7-0.3-1.4V13.3c0-0.7,0.1-1.1,0.3-1.4c0.2-0.2,0.6-0.4,1.2-0.4
l1.5-0.1v-1h-9v1l1.3,0.1c0.6,0,0.9,0.2,1.2,0.4c0.2,0.2,0.3,0.7,0.3,1.4v15.9c0,0.7-0.1,1.1-0.3,1.4c-0.2,0.2-0.6,0.4-1.2,0.4
l-1.3,0.1v1H121z M125,32.1l0.3-1.2c0.3,0.1,0.6,0.3,1,0.5c0.4,0.2,0.8,0.4,1.2,0.6c0.5,0.2,1,0.3,1.6,0.5c0.6,0.1,1.3,0.2,2,0.2
c1.1,0,2.2-0.2,3.2-0.5c1-0.3,1.8-0.8,2.5-1.3c0.7-0.6,1.3-1.3,1.7-2.1c0.4-0.8,0.6-1.7,0.6-2.6c0-1-0.2-1.9-0.5-2.6
c-0.4-0.7-0.8-1.3-1.4-1.7c-0.6-0.5-1.2-0.8-1.9-1.1c-0.7-0.3-1.3-0.5-2-0.7l-2.6-0.7c-1.3-0.4-2.2-0.8-2.9-1.4
c-0.6-0.6-1-1.4-1-2.5c0-1.3,0.4-2.4,1.2-3.1c0.8-0.8,1.9-1.1,3.2-1.1c1.2,0,2.1,0.2,2.9,0.6c0.7,0.4,1.3,0.9,1.8,1.5
c0.5,0.6,0.8,1.2,1.1,1.9c0.2,0.7,0.5,1.3,0.6,1.9h1l-0.3-6.7h-1l-0.4,1c-0.3-0.1-0.6-0.3-0.9-0.5c-0.3-0.2-0.7-0.3-1.2-0.5
c-0.5-0.1-1-0.3-1.5-0.4c-0.6-0.1-1.2-0.2-1.9-0.2c-0.8,0-1.7,0.1-2.5,0.3c-0.9,0.2-1.7,0.6-2.4,1.1c-0.7,0.5-1.3,1.2-1.7,2.1
c-0.5,0.8-0.7,1.9-0.7,3.1c0,1.1,0.2,2,0.6,2.7c0.4,0.7,0.9,1.3,1.5,1.7c0.6,0.4,1.2,0.8,1.8,1c0.6,0.2,1.2,0.4,1.6,0.5l2.2,0.6
c0.9,0.3,1.7,0.5,2.3,0.8c0.6,0.3,1,0.6,1.3,1c0.3,0.4,0.5,0.7,0.6,1.1c0.1,0.4,0.2,0.9,0.2,1.3c0,0.5-0.1,0.9-0.3,1.4
c-0.2,0.5-0.5,0.9-0.9,1.3c-0.4,0.4-0.9,0.7-1.6,0.9c-0.6,0.2-1.4,0.4-2.3,0.4c-1.1,0-2-0.2-2.7-0.5c-0.7-0.3-1.3-0.8-1.8-1.3
c-0.5-0.6-0.9-1.2-1.1-1.9c-0.3-0.7-0.5-1.4-0.7-2.1h-1l0.2,6.6L125,32.1L125,32.1z M143.4,16.7c0.4,0.2,0.8,0.3,1.3,0.3
c0.5,0,0.9-0.1,1.3-0.3c0.4-0.2,0.8-0.4,1.1-0.7c0.3-0.3,0.5-0.7,0.7-1.1c0.2-0.4,0.3-0.8,0.3-1.3c0-0.5-0.1-0.9-0.3-1.3
c-0.2-0.4-0.4-0.8-0.7-1.1c-0.3-0.3-0.7-0.5-1.1-0.7c-0.4-0.2-0.8-0.3-1.3-0.3c-0.5,0-0.9,0.1-1.3,0.3c-0.4,0.2-0.8,0.4-1.1,0.7
c-0.3,0.3-0.5,0.7-0.7,1.1c-0.2,0.4-0.3,0.8-0.3,1.3c0,0.5,0.1,0.9,0.3,1.3c0.2,0.4,0.4,0.8,0.7,1.1
C142.7,16.2,143,16.5,143.4,16.7 M142,14.7c-0.2-0.4-0.2-0.7-0.2-1.2c0-0.4,0.1-0.8,0.2-1.2c0.2-0.4,0.4-0.7,0.6-1
c0.3-0.3,0.6-0.5,0.9-0.6c0.4-0.2,0.7-0.2,1.1-0.2c0.4,0,0.8,0.1,1.1,0.2c0.4,0.2,0.7,0.4,0.9,0.6c0.3,0.3,0.5,0.6,0.6,1
c0.2,0.4,0.2,0.8,0.2,1.2c0,0.4-0.1,0.8-0.2,1.2c-0.2,0.4-0.4,0.7-0.6,1c-0.3,0.3-0.6,0.5-0.9,0.6c-0.4,0.2-0.7,0.2-1.1,0.2
c-0.4,0-0.8-0.1-1.1-0.2c-0.4-0.2-0.7-0.4-0.9-0.6C142.4,15.4,142.2,15.1,142,14.7 M144.7,15.3V15c-0.1,0-0.1,0-0.1,0
c0,0-0.1,0-0.1,0c-0.1,0-0.1,0-0.1,0c0,0,0-0.1,0-0.2v-1.1c0.2,0,0.4,0.1,0.5,0.2c0.2,0.1,0.3,0.3,0.4,0.4l0.5,0.8h0.9V15
c-0.1,0-0.2,0-0.3-0.1c-0.1,0-0.1-0.1-0.2-0.1c-0.1-0.1-0.1-0.1-0.2-0.2c-0.1-0.1-0.1-0.2-0.2-0.3c-0.1-0.1-0.2-0.2-0.2-0.3
c-0.1-0.1-0.1-0.1-0.1-0.2c0,0-0.1-0.1-0.1-0.1c0,0-0.1-0.1-0.1-0.1c0.1,0,0.1,0,0.2-0.1c0.1,0,0.2-0.1,0.3-0.2
c0.1-0.1,0.2-0.2,0.2-0.3c0.1-0.1,0.1-0.2,0.1-0.4c0-0.2,0-0.3-0.1-0.4c-0.1-0.1-0.2-0.2-0.3-0.3c-0.1-0.1-0.3-0.1-0.4-0.2
c-0.2,0-0.3,0-0.4,0h-1.6V12l0.3,0c0.1,0,0.1,0,0.2,0c0,0,0,0.1,0,0.2v2.5c0,0.1,0,0.2,0,0.2c0,0-0.1,0-0.1,0l-0.3,0v0.2
L144.7,15.3L144.7,15.3z M144.2,12.3c0-0.1,0-0.2,0-0.2c0-0.1,0.1-0.1,0.2-0.1h0.1c0.3,0,0.5,0.1,0.6,0.2c0.2,0.1,0.2,0.3,0.2,0.6
c0,0.1,0,0.3-0.1,0.4c-0.1,0.1-0.1,0.2-0.2,0.2c-0.1,0.1-0.2,0.1-0.3,0.1c-0.1,0-0.2,0-0.3,0h-0.3L144.2,12.3L144.2,12.3z"/>
<g>
<path class="st0" d="M25.5,18c-0.3-0.1-0.9-0.3-1,0.1c-0.1,0.3,0.2,0.6,0.3,0.9c0.1,0.3-0.1,0.7,0.2,1c0.3,0.4,0.8-0.2,1.1-0.4
c0.2-0.2,0.1-0.6,0-0.9C25.9,18.4,25.8,18.1,25.5,18"/>
<path class="st0" d="M23.1,18.1c-0.4,0.1-0.9,0-1.2,0.2c-0.3,0.2-0.5,1-0.1,1.2c0.2,0.1,0.4-0.2,0.5-0.4c0.2-0.2,0.4-0.1,0.5,0.1
c0.2,0.5,0,1,0,1.5c0,0.2,0.1,0.4,0.2,0.4c0.2,0,0.3,0,0.4-0.1c0.5-0.7-0.1-1.7,0.6-2.4c0.2-0.2,0.1-0.5-0.1-0.6
C23.6,18,23.4,18.1,23.1,18.1"/>
<path class="st0" d="M26.8,15.4c-0.2-0.1-0.3,0.1-0.4,0.3c-0.1,0.2-0.3,0.3-0.5,0.5c-0.4,0.3-0.2,0.9,0.2,1.1
c0.5,0.2,1.2,0.1,1.1-0.6C27.3,16.2,27.3,15.6,26.8,15.4"/>
<path class="st0" d="M23.3,7.4c-0.3-0.2-0.6-0.2-0.9,0c-0.1,0.1-0.3,0.2-0.5,0.2c-0.1,0-0.3,0.1-0.3,0.2c-0.1,0.3,0.3,0.5,0.4,0.7
c0.2,0.3,0.3,0.6,0.6,0.7c0.4,0.3,1.1,0.2,1.5-0.2c0.1-0.3-0.2-0.5-0.3-0.8C23.6,8,23.5,7.7,23.3,7.4"/>
<path class="st0" d="M28.2,18.9c-0.3-0.2-0.7,0-0.9,0.3c-0.1,0.3-0.1,0.7,0.2,0.8c0.3,0.1,0.7,0,0.7-0.3
C28.3,19.5,28.5,19.1,28.2,18.9"/>
<path class="st0" d="M20.6,18.9c-0.2,0.2,0,0.5,0,0.7c0,0.3-0.2,0.6-0.3,0.9c-0.2,0.3-0.3,0.7-0.1,1c0.2,0.5,1.1,0.7,1.4,0.1
c0.2-0.8,0.1-1.7-0.3-2.4C21.1,19.1,20.9,18.7,20.6,18.9"/>
<path class="st0" d="M20.2,17.8c0.2-0.1,0.6-0.3,0.3-0.5c-0.3-0.2-0.6,0-0.9-0.1c-0.3-0.1-0.9-0.5-1.1-0.1
C18.2,18.1,19.7,18,20.2,17.8"/>
<path class="st0" d="M19.2,10.3c-0.4-0.2-0.8-0.2-1.3-0.2c-0.4,0-0.8-0.3-1.2-0.4c-0.3-0.1-0.5,0-0.7,0.2
c-0.2,0.2-0.1,0.5,0.1,0.6c0.4,0.3,1.1,0.1,1.5,0.4c0.3,0.2,0,0.5-0.2,0.6c-0.3,0.1-0.6,0-0.8,0c-0.5,0-1,0.2-0.6,0.7
c0.2,0.2,0.4,0.3,0.5,0.4c0.1,0.1,0.2,0.3,0.4,0.4c0.2,0.3,0.8,0.9,1,0.2c0.1-0.4-0.2-1.1,0.3-1.3c0.4-0.2,1,0.2,1.4,0
C20.3,11.6,19.5,10.5,19.2,10.3"/>
<path class="st0" d="M14.5,10.8c-0.3-0.1-0.2-0.3-0.1-0.5c0.1-0.2,0.1-0.4-0.1-0.5c-0.2-0.1-0.5-0.2-0.7-0.3
c-0.2-0.1-0.4-0.2-0.7-0.3c-0.4-0.2-1,0.1-0.9,0.6c0.1,0.4,0.6,0.5,1,0.7c0.4,0.3,0.3,0.9,0.5,1.3c0.2,0.4,0.6,0.8,1.1,0.7
c0.4,0,0.6-0.5,0.6-0.9c0-0.2,0-0.4-0.2-0.6C14.9,10.8,14.7,10.9,14.5,10.8"/>
<path class="st0" d="M19.7,22.6c-0.2-0.1-0.3-0.1-0.5-0.2c-0.3,0-0.6,0.1-0.8,0.2c0,0,0.1,0.1,0.1,0.2c0.1,0.3,0.2,0.6,0.4,0.8
c0.2,0.2,0.4,0.5,0.7,0.5c0.3,0,0.5-0.3,0.6-0.5c0.2-0.3,0.2-0.6,0.4-0.8c0.1-0.1,0.2-0.1,0.2-0.2c0,0-0.4-0.1-0.6,0
C20.1,22.6,19.9,22.6,19.7,22.6"/>
<path class="st0" d="M18.6,20.4c0-0.2,0-0.4-0.1-0.6c0-0.2-0.1-0.4-0.2-0.5c-0.1-0.1-0.2-0.1-0.4-0.1c-0.2,0-0.4-0.1-0.6-0.1
c-0.4-0.1-0.8-0.2-1.2,0c-0.1,0-0.1,0.3,0,0.5c0.1,0.1,0.2,0.3,0.3,0.4c0.2,0.3,0.4,0.7,0.6,1c0.1,0.2,0.2,0.3,0.3,0.5
c0.1,0.1,0.1,0.3,0.3,0.4c0.1,0.1,0.3,0.1,0.4,0.1c0.1,0,0.1,0,0.2,0C18.7,21.8,18.6,20.4,18.6,20.4"/>
<path class="st0" d="M19.3,19c-0.3,0.4,0.1,0.8,0.2,1.2c0,0.1,0.2,0.7,0.4,0.5c0.4-0.3,0.2-0.8,0.2-1.2c0-0.2,0-0.5-0.2-0.6
C19.7,18.8,19.4,18.9,19.3,19"/>
<path class="st0" d="M34.7,16.6c-0.1,0.1-0.4,0-0.6,0c-0.3,0-0.6-0.1-0.7-0.5c-0.1-0.3,0.3-0.6,0.6-0.5c0.2,0,0.3,0.2,0.4,0.3
c0.1,0.1,0.3,0.1,0.3,0.3C34.8,16.3,34.9,16.4,34.7,16.6 M9.2,17.7c0.4-0.1,0.4-0.6,0.6-0.8c0.3-0.3,0.5,0.3,0.8,0.3
c0.2,0,0.4,0,0.4,0.3c0,0.3-0.3,0.4-0.5,0.5C10,18.1,9.5,18.1,9.2,17.7 M37.5,21.8c-0.8,0.3-1.9,0-2.6-0.5
c-0.3-0.2-0.6-0.5-0.8-0.8c-0.1-0.2-0.2-0.5-0.5-0.6c-0.4-0.1-0.1,0.7,0,0.8c0.1,0.3,0.4,0.9,0,1.1c-0.5,0.2-0.7-0.4-0.8-0.8
c-0.5-1.4-1.7,0.7-2.1,1.1c-0.5,0.4-1.1,0.5-1.6,0.2c-0.5-0.4-0.8-0.9-1.3-1.3c-1.1-0.8-5.1,1.1-4.5,5.2c0.1,0.4,0.1,0.8,0.2,1.1
c0.4,1.6,1.1,2.5,1.5,2.9c0.6,0.5,1.9,0.4,1.9,0.9c0,0.2-0.3,0.3-0.4,0.3c-0.1,0-0.6,0.2-0.9,0c-0.6-0.5-1,0-1.2-0.2
c-0.5-0.4-0.9-1.2-1.3-2.1c0,0.3-1-2.7-1.1-3c-0.2-0.4-0.4-0.9-0.7-1.2c-0.3-0.3-0.8-0.4-1.1-0.2c-0.4,0.2-0.3,0.8-0.2,1.2
c0.2,0.7,0.5,1.3,0.7,2c0.3,0.7,0.4,1.5,0.6,2.2c0.1,0.3,0.6,1.6-0.2,1.4c-0.3-0.1-0.6-0.4-0.8-0.7c-0.2-0.3-0.2-0.6-0.2-1
c0-0.3,0.1-1.1-0.4-1.1c-0.4,0-0.9,0.5-1,0.9c-0.1,0.5,0.5,0.8,0.6,1.3c0,0.3-0.2,0.6-0.5,0.6c-0.3,0-0.6-0.1-0.9-0.3
c-0.1,0.3-0.4,0.7-0.8,0.5c-0.3-0.1-0.4-0.4-0.7-0.5c-0.5-0.2-1,0.9-1.6,0.1c-0.5-0.5,1.1-0.7,1.8-1c0.6-0.3,1.1-0.9,1.5-1.4
c0.4-0.6,0.4-1.4,0.4-2.1c0-0.8-0.1-1.7-0.2-2.5c0-0.5,0-1.2-0.4-1.6c-0.3,0-0.6,0-0.8,0.1c-0.3,0-0.6,0.1-1,0.2
c-0.2,0.1-0.6,0.1-0.8,0c-0.2-0.2,0-0.4,0.2-0.5c0.2-0.2,0.5-0.2,0.7-0.4c0.2-0.2,0.2-0.6,0.1-0.9c-0.2-0.6-0.8-1.2-1.3-1.5
c-0.5-0.3-1.1-0.5-1.6,0c-0.4,0.5-0.2,1.2,0.2,1.6c0.2,0.2,0.6,0.4,0.8,0.6c0.2,0.2,0.5,0.5,0.1,0.6c-0.3,0.1-0.6-0.2-0.8-0.4
c-0.3-0.2-0.7-0.3-1-0.3c-0.6-0.1-1.3,0.1-1.6,0.6c-0.1,0.2-0.2,0.3-0.1,0.5c0,0.1,0.1,0.3,0,0.4c-0.1,0.1-0.3,0.1-0.4,0.1
c-0.3,0.1-0.7,0.2-0.8,0.3c-0.3,0.1-0.6,0.3-0.9,0.5C8.6,24.5,8,24.6,7.8,24c-0.2-0.4-0.3-1.3-0.9-1.3c-0.4,0-0.6,0.3-1,0.3
c-0.3,0-0.6-0.1-0.8-0.3c-0.4-0.3-0.8-0.8-0.7-1.4c0.1-0.7,1-0.4,1.4-0.2c0.6,0.3,1.1,0.9,1.7,1.3c0.4,0.4,0.9,0.7,1.5,0.7
c0.3,0.1,1.1-0.1,0.9-0.6c-0.1-0.3-0.5-0.5-0.6-0.8c-0.2-0.6,0.7-0.5,1-0.5c0.4,0.1,1.1,0.2,1.1-0.3c0-0.6-0.6-0.9-1.1-1
c-0.6-0.1-1.4,0.1-1.8-0.5c-0.4-0.6,0.6-0.9,1-0.9c0.3,0,0.7,0.1,1,0.3c0.3,0.2,0.5,0.4,0.8,0.6c0.3,0.2,0.6,0.3,0.9,0.1
c0.2-0.1,0.3-0.4,0.2-0.6c-0.2-0.4-0.7-0.6-0.9-1c-0.1-0.3,0-0.6,0.3-0.7c0.3-0.1,0.6,0,0.8,0.2c0.5,0.4,0.7,1.1,1.3,1.3
c0.3,0.1,0.7,0.2,0.9-0.1c0.2-0.2,0-0.5-0.3-0.6c-0.3-0.2-0.9-0.3-0.9-0.8c0-0.6,0.6-0.6,1-0.4c0.3,0.1,1.3,1,1.6,0.6
c0.1-0.2-0.1-0.5-0.1-0.7c-0.1-0.2-0.1-0.6,0.3-0.6c0.4,0,0.5,1,1,0.9c0.2,0,0.2-0.2,0.4-0.3c0.1-0.1,0.3-0.1,0.4-0.1
c0.3-0.1,0.5-0.3,0.8-0.5c0.3-0.1,0.6-0.1,1-0.1c0.3,0,0.4-0.3,0.7-0.4c0.3-0.2,0.6,0,0.8,0.1c0.3,0.1,0.5,0,0.5-0.3
c0.1-0.2,0-0.5,0.1-0.7c0.1-0.3,0.2-0.5,0-0.8c-0.2-0.2-0.5-0.4-0.7-0.7c-0.2-0.2-0.3-0.5-0.6-0.5c-0.4-0.1-1,0-1,0.5
c0,0.3,0.3,0.5,0.6,0.7c0.1,0,0.3,0,0.3,0.2c0,0.1,0.1,0.1,0.1,0.2c-0.1,0.4-0.5,0.6-0.9,0.5c-0.2,0-0.3-0.2-0.5-0.1
c-0.2,0.1-0.1,0.3-0.2,0.4c-0.2,0.3-0.6,0-0.7-0.2c-0.1-0.1-0.1-0.3-0.3-0.5c0,0-0.3-0.1-0.4-0.2c-0.3-0.3-0.7-0.2-1.1-0.2
c-0.3,0-0.9,0.1-0.7,0.6c0.1,0.4,0.5,0.8,0,1.1c-0.3,0.3-0.8,0.2-1.1,0c-0.3-0.2-0.6-0.5-0.9-0.4c-0.3,0-0.1,0.3,0,0.5
c0.2,0.4-0.2,0.4-0.5,0.4c-0.4,0-0.8-0.1-1.2-0.2c-0.3-0.1-0.6-0.3-0.9-0.4c-0.3-0.1-0.6,0-1,0.1c-0.4,0.1-0.8,0.1-1.2-0.1
c-0.3-0.2-0.6-0.4-0.9-0.5C7.7,15,7.3,15,7,14.7c-0.2-0.2-0.2-0.5-0.1-0.7c0.1-0.3,0.6-0.2,0.8-0.5c0.2-0.3,0.4-0.4,0.8-0.3
c0.3,0.1,0.5,0.2,0.6,0.5c0.1,0.3,0.1,0.5,0.2,0.8c0.2,0.3,0.6,0.3,0.9,0.3c0.4-0.1,0.6,0,1,0.1c0.3,0.1,0.6,0.1,0.9-0.1
c0.2-0.1,0.2-0.4,0.1-0.6c-0.2-0.3-0.7-0.4-1.1-0.4c-0.6-0.1-1-0.5-1.6-0.7c-0.4-0.1-1.2-0.1-1-0.7c0.2-0.6,1.2-0.7,1.6-0.2
c0.2,0.2,0.3,0.6,0.7,0.6c0.3,0.1,0.6-0.1,0.8,0c0.2,0,1.1,0.7,1.3,0.2c0.1-0.3-0.2-0.5-0.4-0.7c-0.2-0.3-0.2-0.6-0.2-0.9
c0-0.3-0.1-0.6-0.3-0.8c-0.3-0.2-0.6-0.2-0.9-0.4c-0.5-0.4-0.5-1.2-0.1-1.6C11.3,7.9,12,8,12.6,8.3c0.3,0.2,0.6,0.4,1,0.4
c0.3,0,0.5-0.3,0.5-0.6c-0.1-0.5-0.9-0.3-1.3-0.5c-0.3-0.1-0.4-0.5-0.1-0.8c0.2-0.2,0.5-0.3,0.8-0.4c0.5-0.1,1.2,0.1,1.3,0.7
c0.1,0.3-0.1,1.4,0.4,1.4c0.3,0,0.5-0.3,0.8-0.3c0.2,0,0.4,0.3,0.5,0.5c0.5,0.6,1-0.3,1.6-0.4c0.7-0.1,1,0.8,1.7,0.9
c0.3,0,0.7-0.1,0.9,0.2c0.2,0.2,0.2,0.5,0.1,0.7c0,0.3,0,0.6,0.1,0.9c0.1,0.3,0.4,0.5,0.4,0.8c0,0.3-0.1,0.6,0.1,0.8
c0.2,0.2,0.6,0.2,0.8,0.1c0.3-0.1,0.5-0.4,0.5-0.7c0-0.2-0.1-0.5,0-0.7c0.1-0.3,0.5-0.2,0.6,0c0.2,0.1,0.4,0.3,0.7,0.2
c0.5-0.2,0.6-1,0.2-1.3c-0.5-0.4-1,0.1-1.4,0.4c-0.3,0.3-1,0.7-1.4,0.2C21,10.4,22,10.2,22,9.8c0-0.5-0.8-0.7-1-1
c-0.2-0.3-0.1-0.6-0.2-0.8c-0.1-0.3-0.3-0.4-0.6-0.4c-0.4-0.1-0.6-0.3-0.9-0.5c-0.2-0.2-0.5-0.3-0.7-0.5c-0.2-0.1-0.4-0.3-0.3-0.6
c0.1-0.3,0.4-0.4,0.6-0.3c0.4,0.1,0.8,0.8,1.4,0.6c0.2-0.1,0.4-0.4,0.3-0.7c0-0.3-0.3-0.4-0.5-0.5C19.9,5,19.6,5,19.5,4.8
c-0.1-0.2-0.1-0.6,0.1-0.7c0.3-0.1,0.6-0.2,0.9-0.2c0.3,0.1,0.6,0.3,0.9,0.4c0.3,0.2,0.7,0.2,1.1,0.1c0.3-0.1,0.6-0.2,0.9-0.1
c0.3,0.1,0.3,0.5,0.1,0.7c-0.2,0.2-0.4,0.2-0.7,0.1C22.6,4.9,22.4,5,22.1,5c-0.2,0-0.7,0.1-0.7,0.4c0,0.3,0.3,0.4,0.5,0.6
C22,6.2,21.9,6.5,22,6.7c0.2,0.3,0.7-0.2,0.9-0.4c0.3-0.3,0.9-0.7,1,0c0,0.4,0,0.6,0.4,0.7c0.3,0.1,0.4,0.4,0.5,0.7
C25,8.2,24.7,8.9,25,9.2c0.4,0.4,0.8-0.3,1.1-0.5c0.2-0.1,0.5-0.2,0.7,0C27,9,26.7,9.3,26.5,9.4c-0.1,0.1-0.3,0.2-0.2,0.4
c0.1,0.1,0.2,0.2,0.3,0.1c0.3-0.1,0.5-0.3,0.8-0.1c0.1,0.1,0.3,0.3,0.3,0.4c0.3,0.2,0.6,0.2,0.9,0.1c0.2-0.1,0.3-0.4,0.1-0.6
c-0.2-0.1-0.4-0.2-0.7-0.2c-0.4-0.1-0.8-0.4-0.7-0.9c0.2-0.4,0.7-0.4,1-0.1c0.4,0.3,0.6,0.8,1,1.1c0.3,0.2,0.7,0.2,1,0.2
c0.4-0.1,0.5-0.4,0.3-0.7c-0.2-0.2-0.4-0.4-0.4-0.7c0-0.3,0.1-0.5,0.3-0.7c0.3-0.3,1.4-0.9,1.5-0.2c0,0.5-0.6,1-0.4,1.5
c0.3,0.6,1.2,0.3,1.7,0.4c0.2,0.1,0.5,0.3,0.6,0.5c0,0.3-0.2,0.5-0.5,0.6c-0.6,0.2-1.2-0.1-1.5,0.5c-0.1,0.3-0.3,0.5-0.6,0.4
c-0.3-0.1-0.4-0.4-0.7-0.5c-0.3-0.1-0.5,0.2-0.6,0.4c-0.1,0.2-0.2,0.5-0.4,0.5c-0.3,0-0.4-0.4-0.6-0.5c-0.2-0.2-0.5-0.4-0.8-0.4
c-0.7,0.1-0.5,0.9-0.2,1.3c0.2,0.4,0.6,1.2-0.1,1.4c-0.8,0.2-0.9-0.9-0.9-1.4c-0.1-0.5-0.4-1.2-1.1-1c-0.3,0.1-0.5,0.3-0.5,0.6
c0.1,0.3,0.3,0.5,0.6,0.8c0.3,0.3,0.6,0.8,0.7,1.3c0.1,0.5-0.4,0.8-0.9,0.6c-0.3-0.1-0.4-0.4-0.4-0.7c0-0.2-0.2-0.5-0.4-0.5
c-0.4,0-0.7,0.5-0.9,0.8c-0.3,0.3-0.7,0.2-1.1,0.4c-0.2,0.1-0.3,0.2-0.3,0.4c0,0.3,0.2,0.4,0.5,0.5c0.3,0.1,0.6,0.3,0.9,0.5
c0.3,0.2,0.5,0,0.6-0.3c0.1-0.3,0.3-0.4,0.6-0.5c0.3-0.1,0.7-0.1,1-0.1c0.4-0.1,0.7-0.2,1.1-0.1c0.3,0.1,0.5,0.3,0.8,0.4
c0.8,0.2,0.8-0.7,1-1.2c0.1-0.4,0.2-0.7,0.4-1.1c0.1-0.3,0.2-0.5,0.5-0.7c0.6-0.3,1.1,0.2,1.1,0.8c0,0.5-0.4,0.9-0.4,1.4
c0,0.2,0.2,0.4,0.4,0.5c0.2,0,0.4-0.1,0.5-0.3c0.3-0.4,0.5-0.9,1-1.2c0.5-0.3,1.1-0.3,1.6-0.1c0.4,0.2,0.9,0.7,0.6,1.2
c-0.2,0.4-0.8,0.5-1.2,0.4c-0.5,0-1.1-0.2-1.5,0.1c-0.7,0.4-0.2,1.1,0.3,1.5c0.2,0.1,1.2,0.9,0.7,1.1c-0.3,0.1-0.5,0-0.6-0.2
c-0.2-0.2-0.3-0.3-0.6-0.4c-0.3-0.1-0.3-0.4-0.4-0.7c0-0.3-0.2-0.5-0.5-0.6c-0.5-0.2-1.1-0.2-1.6,0c-0.3,0.1-0.4,0.5-0.2,0.7
c0.2,0.2,0.5,0.4,0.7,0.6c0.3,0.2,0.6,0.4,1,0.4c0.3,0.1,0.6,0.1,0.9,0.3c0.2,0.2,0.3,0.5,0,0.6c-0.3,0.2-0.6-0.1-0.8-0.3
c-0.2-0.2-0.5-0.4-0.8-0.2c-0.2,0.1-0.3,0.5-0.6,0.5c-0.3,0-0.4-0.3-0.5-0.5c-0.1-0.2-0.4-0.3-0.7-0.3c-0.5,0.1-0.6,0.7-0.3,1.1
c0.4,0.6,1.2,0.3,1.8,0.5c0.2,0.1,1.3,0.3,0.7,0.6c-0.3,0.2-0.6,0.1-0.9,0.1c-0.3,0-0.5,0.3-0.5,0.6c-0.1,0.5,0.1,1.1,0.4,1.4
c0.2,0.2,0.4,0.2,0.7,0.1c0.3-0.2,0.2-0.5,0-0.7c-0.2-0.2-0.4-0.4-0.5-0.7c0-0.3,0.3-0.2,0.5-0.1c0.3,0.2,0.5,0.5,0.9,0.5
c0.3,0,0.5-0.3,0.6-0.5c0.1-0.5-0.8-1.2-0.4-1.7c0.4-0.5,0.8,0.4,1.3,0.4c0.3,0,0.3-0.4,0.4-0.6c0.2-0.3,0.5-0.3,0.8-0.2
c0.6,0.2,0.6,0.8,0.7,1.3c0.1,0.6,0.3,1.2,0.9,1.5c0.7,0.3,1.5,0.1,2.1-0.2c0.3-0.1,0.6,0.1,0.6,0.4
C38.2,21.5,37.9,21.7,37.5,21.8 M35.9,23.4c0,0-0.6,0.5-1,0.6c-0.3,0.1-1,0-1.3-0.2c-0.3-0.2-0.4-0.5-0.3-0.7
c0.1-0.4,0.5-0.6,0.9-0.7c0.2-0.1,0.4,0,0.6,0c0.2,0.1,0.3,0.2,0.5,0.3c0.4,0.2,0.7-0.2,0.9-0.4c0.1-0.1,0.6-0.2,0.6,0.1
C36.8,22.9,36.2,23.2,35.9,23.4 M28.5,37.2c-0.1,0.2-0.2,0.4-0.3,0.5c-0.1,0.2-0.3,0.3-0.5,0.4c-0.2,0.1-0.4,0.1-0.7,0.1
c-0.3,0-0.5-0.1-0.7-0.2c-0.2-0.1-0.4-0.2-0.5-0.4c-0.1-0.2-0.3-0.4-0.3-0.6c-0.1-0.2-0.1-0.5-0.1-0.7c0-0.4,0.1-0.8,0.3-1.2
c0.2-0.3,0.4-0.6,0.7-0.9c0.3-0.2,0.5-0.4,0.8-0.6c0.3-0.1,0.6-0.2,0.8-0.3l0.1,0l0.1,0.3l0,0c-0.2,0.1-0.3,0.2-0.5,0.3
c-0.2,0.1-0.3,0.2-0.4,0.4c-0.1,0.1-0.2,0.3-0.3,0.5c-0.1,0.1-0.1,0.3-0.2,0.5c0.1,0,0.1,0,0.2-0.1c0.1,0,0.3-0.1,0.4-0.1
c0.2,0,0.5,0,0.6,0.1c0.2,0.1,0.3,0.2,0.5,0.3c0.1,0.1,0.2,0.3,0.3,0.5c0.1,0.2,0.1,0.4,0.1,0.6C28.6,36.8,28.6,37,28.5,37.2
M24.7,37.3c-0.1,0.2-0.2,0.3-0.3,0.5c-0.1,0.1-0.3,0.2-0.5,0.3c-0.2,0.1-0.4,0.1-0.7,0.1c-0.2,0-0.4,0-0.6-0.1
c-0.2-0.1-0.4-0.1-0.5-0.2c-0.1-0.1-0.3-0.2-0.3-0.4c-0.1-0.1-0.1-0.3-0.1-0.5c0-0.2,0-0.3,0.1-0.4c0-0.1,0.1-0.2,0.2-0.3
c0.1-0.1,0.2-0.2,0.3-0.3c0.1-0.1,0.2-0.1,0.3-0.2c-0.2-0.2-0.4-0.3-0.5-0.5c-0.1-0.2-0.2-0.4-0.2-0.7c0-0.2,0-0.4,0.1-0.5
c0.1-0.2,0.2-0.3,0.3-0.4c0.1-0.1,0.3-0.2,0.5-0.3c0.4-0.1,0.7-0.1,1.1,0c0.2,0,0.3,0.1,0.4,0.2c0.1,0.1,0.2,0.2,0.3,0.3
c0.1,0.1,0.1,0.3,0.1,0.5c0,0.2,0,0.3-0.1,0.4c-0.1,0.1-0.2,0.2-0.2,0.3c-0.1,0.1-0.2,0.2-0.3,0.2c-0.1,0-0.1,0.1-0.1,0.1
c0.1,0.1,0.2,0.1,0.4,0.2c0.1,0.1,0.2,0.2,0.3,0.3c0.1,0.1,0.2,0.2,0.2,0.4c0.1,0.1,0.1,0.3,0.1,0.5C24.8,37,24.8,37.1,24.7,37.3
M21,37.3c-0.1,0.2-0.2,0.3-0.3,0.5c-0.2,0.1-0.3,0.2-0.5,0.3c-0.2,0.1-0.4,0.1-0.7,0.1c-0.2,0-0.4,0-0.6-0.1
c-0.2-0.1-0.4-0.1-0.5-0.2c-0.1-0.1-0.3-0.2-0.3-0.4c-0.1-0.1-0.1-0.3-0.1-0.5c0-0.2,0-0.3,0.1-0.4c0.1-0.1,0.1-0.2,0.2-0.3
c0.1-0.1,0.2-0.2,0.3-0.3c0.1-0.1,0.2-0.1,0.3-0.2c-0.2-0.2-0.4-0.3-0.5-0.5C18,35.1,18,34.9,18,34.6c0-0.2,0-0.4,0.1-0.5
c0.1-0.2,0.2-0.3,0.3-0.4c0.1-0.1,0.3-0.2,0.5-0.3c0.4-0.1,0.7-0.1,1.1,0c0.2,0,0.3,0.1,0.4,0.2c0.1,0.1,0.2,0.2,0.3,0.3
c0.1,0.1,0.1,0.3,0.1,0.5c0,0.2,0,0.3-0.1,0.4c-0.1,0.1-0.2,0.2-0.3,0.3c-0.1,0.1-0.2,0.2-0.3,0.2c0,0-0.1,0.1-0.1,0.1
c0.1,0.1,0.2,0.1,0.4,0.2c0.1,0.1,0.2,0.2,0.3,0.3c0.1,0.1,0.2,0.2,0.2,0.4c0.1,0.1,0.1,0.3,0.1,0.5C21.1,37,21.1,37.1,21,37.3
M17.3,38.1h-2.6v-0.4l0.5,0c0.1,0,0.2,0,0.2-0.1c0,0,0.1-0.1,0.1-0.2v-2.5c0-0.1,0-0.2-0.1-0.3c-0.1-0.1-0.2-0.1-0.4-0.1l-0.3,0
V34l0,0c0.1,0,0.2,0,0.3-0.1c0.1,0,0.2-0.1,0.4-0.1c0.1-0.1,0.2-0.1,0.4-0.2c0.1-0.1,0.2-0.1,0.3-0.2l0,0h0.5v3.9
c0,0.2,0,0.2,0.1,0.2c0,0,0.1,0.1,0.2,0.1l0.5,0L17.3,38.1L17.3,38.1z M6.2,19.9c0.1-0.2,0.3-0.2,0.5-0.1C7,19.9,7.3,20,7.6,20.1
c0.2,0.1,0.4,0.1,0.6,0.2c0.2,0.2,0.1,0.4,0,0.6c-0.2,0.4-0.8,0.3-1.1,0.1c-0.2-0.1-0.4-0.3-0.6-0.5C6.3,20.4,6.1,20.2,6.2,19.9
M6.6,17.8c0.2-0.2,0.4-0.4,0.6-0.6c0.1-0.2,0.3-0.5,0.6-0.4C8,16.9,8,17.2,8,17.4c0,0.3-0.2,0.5-0.3,0.7
c-0.1,0.2,0.1,0.4-0.1,0.5c-0.3,0.1-0.6,0-0.9,0c-0.2,0-0.4,0-0.4-0.2C6.2,18.2,6.5,18,6.6,17.8 M14.3,5c0.3-0.4,0.9-0.3,1.3-0.1
C16.2,5.2,16.6,5.6,17,6c0.5,0.4,1,0.8,1.4,1.3c0.2,0.1,0.2,0.4,0.1,0.5c-0.2,0.2-0.4,0-0.6-0.1c-0.5-0.3-1.2,0-1.7-0.3
c-0.2-0.1-0.4-0.4-0.2-0.6c0.1-0.1,0.2-0.4,0-0.4c-0.5-0.2-1.1,0.2-1.5-0.3C14.1,5.9,14,5.3,14.3,5 M24.3,4.6
c0.2-0.8,1.3-0.9,1.9-0.5c0.4,0.2,0.3,0.8,0.3,1.1c0,0.5,0.3,0.9,0.5,1.3c0.1,0.4,0,0.8-0.4,1c-0.4,0.2-0.6-0.2-0.8-0.5
c-0.2-0.4-0.5-0.9-0.8-1.3C24.7,5.4,24.2,5.1,24.3,4.6 M27.6,5.3c0.1-0.2,0.4-0.2,0.6-0.2c0.6,0,1.1,0.2,1.5,0.7
C29.9,6,30.2,6.2,30,6.5c-0.1,0.2-0.4,0.2-0.6,0.2c-0.6,0-1.1-0.4-1.6-0.8C27.7,5.8,27.4,5.5,27.6,5.3 M35,17.9
c0.1-0.2,0.4-0.2,0.6-0.1c0.4,0,0.9,0.2,1.1,0.6c0.2,0.3-0.2,0.7-0.6,0.6c-0.2-0.1-0.3-0.3-0.4-0.4c-0.2-0.1-0.4-0.1-0.6-0.2
C35,18.2,34.9,18,35,17.9 M37.6,19c0.2,0.2,0.3,0.5,0.1,0.7c-0.2,0.1-0.6,0-0.7-0.2C36.7,19.2,37.3,18.7,37.6,19 M21.3,0
C9.5,0,0,9.5,0,21.3C0,33,9.5,42.5,21.3,42.5c11.7,0,21.3-9.5,21.3-21.3C42.5,9.5,33,0,21.3,0"/>
<path class="st0" d="M26.9,35.7c-0.1,0-0.2,0-0.2,0c-0.1,0-0.1,0.1-0.2,0.1c0,0.1,0,0.2,0,0.3c0,0.1,0,0.2,0,0.3
c0,0.2,0,0.4,0,0.5c0,0.2,0,0.3,0.1,0.4c0,0.1,0.1,0.2,0.2,0.3c0.1,0.1,0.2,0.1,0.3,0.1c0.2,0,0.3-0.1,0.4-0.2
c0.1-0.2,0.1-0.4,0.1-0.8c0-0.3,0-0.6-0.1-0.8C27.3,35.8,27.1,35.7,26.9,35.7"/>
<path class="st0" d="M22.7,34.8c0.1,0.1,0.1,0.1,0.2,0.2c0.1,0,0.2,0.1,0.3,0.1l0.2,0.1c0.1-0.1,0.2-0.2,0.2-0.3
c0.1-0.1,0.1-0.3,0.1-0.5c0-0.2-0.1-0.4-0.2-0.5c-0.1-0.1-0.2-0.1-0.4-0.1c-0.2,0-0.3,0-0.4,0.1c-0.1,0.1-0.2,0.2-0.2,0.4
c0,0.1,0,0.2,0,0.3C22.6,34.6,22.7,34.7,22.7,34.8"/>
<path class="st0" d="M20,36.5c-0.1-0.1-0.2-0.1-0.2-0.2c-0.1-0.1-0.2-0.1-0.3-0.2L19.1,36c-0.1,0.1-0.2,0.2-0.3,0.4
c-0.1,0.2-0.1,0.3-0.1,0.5c0,0.3,0.1,0.5,0.2,0.6c0.1,0.1,0.3,0.2,0.5,0.2c0.2,0,0.4-0.1,0.5-0.2c0.1-0.1,0.2-0.3,0.2-0.5
c0-0.1,0-0.2-0.1-0.3C20.1,36.7,20,36.6,20,36.5"/>
<path class="st0" d="M23.7,36.5c-0.1-0.1-0.2-0.1-0.2-0.2c-0.1-0.1-0.2-0.1-0.3-0.2L22.8,36c-0.1,0.1-0.2,0.2-0.3,0.4
c-0.1,0.2-0.1,0.3-0.1,0.5c0,0.3,0.1,0.5,0.2,0.6c0.1,0.1,0.3,0.2,0.5,0.2c0.2,0,0.4-0.1,0.5-0.2c0.1-0.1,0.2-0.3,0.2-0.5
c0-0.1,0-0.2-0.1-0.3C23.8,36.7,23.8,36.6,23.7,36.5"/>
<path class="st0" d="M19,34.8c0.1,0.1,0.1,0.1,0.2,0.2c0.1,0,0.2,0.1,0.3,0.1l0.2,0.1c0.1-0.1,0.2-0.2,0.2-0.3
c0.1-0.1,0.1-0.3,0.1-0.5c0-0.2-0.1-0.4-0.2-0.5c-0.1-0.1-0.2-0.1-0.4-0.1c-0.2,0-0.3,0-0.4,0.1c-0.1,0.1-0.2,0.2-0.2,0.4
c0,0.1,0,0.2,0,0.3C18.9,34.6,19,34.7,19,34.8"/>
</g>
</g>
</svg>
